<?xml version="1.0" standalone="no"?><!DOCTYPE svg PUBLIC "-//W3C//DTD SVG 1.1//EN" "http://www.w3.org/Graphics/SVG/1.1/DTD/svg11.dtd"><svg t="1653496778335" class="icon" viewBox="0 0 1024 1024" version="1.1" xmlns="http://www.w3.org/2000/svg" p-id="1269" xmlns:xlink="http://www.w3.org/1999/xlink" width="200" height="200"><defs><style type="text/css"></style></defs><path d="M673.28 664.32m-288 0a288 288 0 1 0 576 0 288 288 0 1 0-576 0Z" fill="#FFD84A" p-id="1270"></path><path d="M659.2 890.88H296.96C153.6 890.88 37.12 774.4 37.12 631.04V305.92C37.12 162.56 153.6 46.08 296.96 46.08h366.08c142.08 0 257.28 116.48 257.28 259.84v327.68c0 142.08-117.76 257.28-261.12 257.28z m-362.24-793.6c-115.2 0-208.64 93.44-208.64 208.64v325.12c0 115.2 93.44 208.64 208.64 208.64h363.52c115.2 0 208.64-92.16 208.64-206.08V305.92c0-115.2-92.16-208.64-206.08-208.64H296.96z" p-id="1271"></path><path d="M478.72 590.08c-14.08 0-25.6-11.52-25.6-25.6v-192c0-14.08 11.52-25.6 25.6-25.6s25.6 11.52 25.6 25.6v192c0 14.08-11.52 25.6-25.6 25.6z" p-id="1272"></path><path d="M574.72 494.08h-192c-14.08 0-25.6-11.52-25.6-25.6s11.52-25.6 25.6-25.6h192c14.08 0 25.6 11.52 25.6 25.6s-11.52 25.6-25.6 25.6z" p-id="1273"></path></svg>