<?xml version="1.0" standalone="no"?><!DOCTYPE svg PUBLIC "-//W3C//DTD SVG 1.1//EN" "http://www.w3.org/Graphics/SVG/1.1/DTD/svg11.dtd"><svg t="1653989669176" class="icon" viewBox="0 0 1024 1024" version="1.1" xmlns="http://www.w3.org/2000/svg" p-id="1300" xmlns:xlink="http://www.w3.org/1999/xlink" width="200" height="200"><defs><style type="text/css"></style></defs><path d="M608.96 148.992L277.952 489.984a29.376 29.376 0 0 0-8.96 21.504c0 8.32 3.008 15.872 8.96 22.528l331.008 340.992a30.592 30.592 0 0 0 21.056 7.936 28.8 28.8 0 0 0 20.992-8.96 28.8 28.8 0 0 0 8.96-20.992 28.8 28.8 0 0 0-8.96-20.992L338.88 512l312-320a28.8 28.8 0 0 0 9.024-20.992 28.8 28.8 0 0 0-8.96-20.992 28.8 28.8 0 0 0-21.056-8.96 30.592 30.592 0 0 0-20.992 8v-0.064z" p-id="1301"></path></svg>