<?xml version="1.0" standalone="no"?><!DOCTYPE svg PUBLIC "-//W3C//DTD SVG 1.1//EN" "http://www.w3.org/Graphics/SVG/1.1/DTD/svg11.dtd"><svg t="1653802282049" class="icon" viewBox="0 0 1024 1024" version="1.1" xmlns="http://www.w3.org/2000/svg" p-id="1605" xmlns:xlink="http://www.w3.org/1999/xlink" width="200" height="200"><defs><style type="text/css"></style></defs><path d="M512 0C229.376 0 0.512 229.376 0.512 511.488v11.264c1.536 87.552 26.112 173.056 70.656 248.832l6.144 10.24-25.6 70.144-1.536 5.12c-13.824 48.128 11.264 97.792 57.344 114.176l6.144 2.048c8.192 2.56 16.896 3.584 25.6 3.584h158.72l-8.704-4.096c69.632 33.792 145.92 51.2 223.232 51.2 282.624 0 511.488-229.376 511.488-512S795.136 0 512 0zM286.208 573.44c-33.792 0-61.44-27.648-61.44-61.44s27.648-61.44 61.44-61.44 61.44 27.648 61.44 61.44-27.136 61.44-61.44 61.44z m225.28 0c-33.792 0-61.44-27.648-61.44-61.44s27.648-61.44 61.44-61.44 61.44 27.648 61.44 61.44-27.136 61.44-61.44 61.44z m225.28 0c-33.792 0-61.44-27.648-61.44-61.44s27.648-61.44 61.44-61.44 61.44 27.648 61.44 61.44-27.136 61.44-61.44 61.44z" p-id="1606"></path></svg>