<?xml version="1.0" standalone="no"?><!DOCTYPE svg PUBLIC "-//W3C//DTD SVG 1.1//EN" "http://www.w3.org/Graphics/SVG/1.1/DTD/svg11.dtd"><svg t="1653496810024" class="icon" viewBox="0 0 1024 1024" version="1.1" xmlns="http://www.w3.org/2000/svg" p-id="1415" xmlns:xlink="http://www.w3.org/1999/xlink" width="200" height="200"><defs><style type="text/css"></style></defs><path d="M692.48 657.92m-256 0a256 256 0 1 0 512 0 256 256 0 1 0-512 0Z" fill="#FFD84A" p-id="1416"></path><path d="M761.6 806.4H279.04c-126.72 0-229.12-102.4-229.12-229.12V313.6c0-126.72 102.4-229.12 229.12-229.12H640c126.72 0 229.12 102.4 229.12 229.12v384c1.28 28.16-10.24 55.04-29.44 75.52-20.48 21.76-48.64 33.28-78.08 33.28zM279.04 135.68c-98.56 0-177.92 79.36-177.92 177.92v263.68c0 98.56 79.36 177.92 177.92 177.92h483.84c15.36 0 29.44-6.4 40.96-16.64 10.24-10.24 15.36-24.32 15.36-39.68v-384c0-98.56-79.36-177.92-177.92-177.92H279.04z" p-id="1417"></path><path d="M221.44 366.08c0 25.6 20.48 44.8 44.8 44.8s44.8-20.48 44.8-44.8-20.48-44.8-44.8-44.8-44.8 17.92-44.8 44.8z" p-id="1418"></path><path d="M455.68 366.08m-44.8 0a44.8 44.8 0 1 0 89.6 0 44.8 44.8 0 1 0-89.6 0Z" p-id="1419"></path></svg>