<?xml version="1.0" standalone="no"?><!DOCTYPE svg PUBLIC "-//W3C//DTD SVG 1.1//EN" "http://www.w3.org/Graphics/SVG/1.1/DTD/svg11.dtd"><svg t="1653499986920" class="icon" viewBox="0 0 1024 1024" version="1.1" xmlns="http://www.w3.org/2000/svg" p-id="1852" xmlns:xlink="http://www.w3.org/1999/xlink" width="200" height="200"><defs><style type="text/css"></style></defs><path d="M661.76 670.72m-256 0a256 256 0 1 0 512 0 256 256 0 1 0-512 0Z" fill="#FFD84A" p-id="1853"></path><path d="M490.24 890.88c-225.28 0-409.6-184.32-409.6-409.6s184.32-409.6 409.6-409.6 409.6 184.32 409.6 409.6-183.04 409.6-409.6 409.6z m0-768c-197.12 0-358.4 161.28-358.4 358.4s161.28 358.4 358.4 358.4 358.4-161.28 358.4-358.4-160-358.4-358.4-358.4z" p-id="1854"></path><path d="M490.24 677.12C382.72 677.12 294.4 588.8 294.4 481.28s88.32-195.84 195.84-195.84 195.84 88.32 195.84 195.84-88.32 195.84-195.84 195.84z m0-340.48c-79.36 0-144.64 65.28-144.64 144.64 0 79.36 65.28 144.64 144.64 144.64 79.36 0 144.64-65.28 144.64-144.64 0-80.64-65.28-144.64-144.64-144.64z" p-id="1855"></path></svg>