<?xml version="1.0" standalone="no"?><!DOCTYPE svg PUBLIC "-//W3C//DTD SVG 1.1//EN" "http://www.w3.org/Graphics/SVG/1.1/DTD/svg11.dtd"><svg t="1653802263428" class="icon" viewBox="0 0 1024 1024" version="1.1" xmlns="http://www.w3.org/2000/svg" p-id="1458" xmlns:xlink="http://www.w3.org/1999/xlink" width="200" height="200"><defs><style type="text/css"></style></defs><path d="M678.4 61.44h-73.728c-31.744 0-62.464 14.336-83.456 40.448L320 386.048c-13.824 16.896-21.504 38.4-21.504 59.904v481.792c0 18.944 15.36 34.816 34.304 34.816h518.144c95.232 0 172.544-73.216 172.544-162.816V437.248c0-54.272-46.592-98.816-103.424-98.816h-230.4l56.32-198.144c0.512-1.536 1.024-3.584 1.024-5.12 2.56-18.432-3.072-36.352-15.36-50.176-12.8-14.848-32.256-23.552-53.248-23.552zM202.752 404.48H53.248C24.064 404.48 0 428.544 0 458.24v450.56c0 29.696 24.064 53.76 53.248 53.76h149.504c29.696 0 53.248-24.064 53.248-53.76v-450.56C256 428.544 231.936 404.48 202.752 404.48z" p-id="1459"></path></svg>